# Blender v2.79 (sub 0) OBJ File: ''
# www.blender.org
mtllib Ground.mtl
o Cube
v 1.000000 -0.600000 -1.000000
v 1.000000 -0.600000 1.000000
v -1.000000 -0.600000 1.000000
v -1.000000 -0.600000 -1.000000
v 0.996463 -0.203611 -1.084968
v 1.092195 0.183545 -0.863096
v 1.000000 0.600000 -1.000000
v 0.996622 -0.206876 0.911966
v 1.094600 0.189141 1.137059
v 1.000000 0.600000 1.000000
v -0.999560 -0.207551 0.921074
v -0.904794 0.191549 1.135173
v -1.000000 0.600000 1.000000
v -1.004445 -0.205436 -1.078471
v -0.917422 0.184186 -0.863070
v -1.000000 0.600000 -1.000000
v 1.000000 -0.600000 -0.600000
v 1.000000 -0.600000 -0.200000
v 1.000000 -0.600000 0.200000
v 1.000000 -0.600000 0.600000
v -1.000000 -0.600000 0.600000
v -1.000000 -0.600000 0.200000
v -1.000000 -0.600000 -0.200000
v -1.000000 -0.600000 -0.600000
v -0.977246 0.020373 0.639619
v -0.992040 -0.064932 0.338219
v -1.000000 -0.200000 -0.200000
v -1.013579 -0.365085 -0.695647
v -0.985808 0.365835 0.685597
v -1.012358 0.055597 0.125465
v -1.019078 0.075842 -0.103205
v -1.000000 0.200000 -0.600000
v -1.000000 0.600000 0.600000
v -1.000000 0.600000 0.200000
v -1.000000 0.600000 -0.200000
v -1.000000 0.600000 -0.600000
v 1.000000 -0.200000 -0.600000
v 0.995196 -0.135916 -0.071136
v 0.967538 -0.369685 0.188820
v 1.000000 -0.200000 0.600000
v 1.000000 0.200000 -0.600000
v 1.000000 0.200000 -0.200000
v 1.000000 0.200000 0.200000
v 1.016222 0.105233 0.487771
v 1.000000 0.600000 -0.600000
v 1.000000 0.600000 -0.200000
v 1.000000 0.600000 0.200000
v 1.000000 0.600000 0.600000
v -1.000848 0.600988 0.999882
v 0.997784 0.600642 0.999689
v -1.000805 0.598980 -0.999257
v 0.997827 0.598634 -0.999450
v 0.588303 -0.600000 -1.000000
v 0.188303 -0.600000 -1.000000
v -0.211697 -0.600000 -1.000000
v -0.611697 -0.600000 -1.000000
v 0.588303 -0.600000 1.000000
v 0.188303 -0.600000 1.000000
v -0.211697 -0.600000 1.000000
v -0.611697 -0.600000 1.000000
v 0.588303 0.600000 -1.000000
v 0.188303 0.600000 -1.000000
v -0.211697 0.600000 -1.000000
v -0.611697 0.600000 -1.000000
v 0.573576 0.005361 -0.867625
v 0.251649 0.381682 -0.919684
v -0.077381 0.092741 -0.974620
v -0.709842 0.095549 -0.936764
v 0.589208 -0.359022 -1.069681
v 0.188356 -0.008429 -1.049671
v -0.223947 -0.331822 -1.031365
v -0.574402 -0.106424 -1.026595
v 0.515178 -0.082310 0.885055
v 0.359677 -0.208413 0.951794
v 0.041976 -0.155180 1.003670
v -0.664744 -0.157992 0.975845
v 0.512690 0.203743 1.122952
v 0.145483 0.358329 1.070710
v -0.121288 0.080491 1.032204
v -0.441623 0.224208 1.028887
v 0.588303 0.600000 1.000000
v 0.188303 0.600000 1.000000
v -0.211697 0.600000 1.000000
v -0.611697 0.600000 1.000000
v 0.588303 -0.600000 -0.600000
v 0.188303 -0.600000 -0.600000
v -0.211697 -0.600000 -0.600000
v -0.611697 -0.600000 -0.600000
v 0.588303 -0.600000 -0.200000
v 0.188303 -0.600000 -0.200000
v -0.211697 -0.600000 -0.200000
v -0.611697 -0.600000 -0.200000
v 0.588303 -0.600000 0.200000
v 0.188303 -0.600000 0.200000
v -0.211697 -0.600000 0.200000
v -0.611697 -0.600000 0.200000
v 0.588303 -0.600000 0.600000
v 0.188303 -0.600000 0.600000
v -0.211697 -0.600000 0.600000
v -0.611697 -0.600000 0.600000
vn 0.0000 -1.0000 -0.0000
vn 0.0773 -0.1199 -0.9898
vn -0.1504 -0.2077 -0.9666
vn -0.0378 0.4557 -0.8893
vn -0.9993 -0.0337 -0.0185
vn -0.9843 0.1392 -0.1088
vn -0.9855 -0.1199 -0.1199
vn -0.0830 0.1170 0.9897
vn 0.0968 -0.3570 0.9291
vn 0.1112 0.2394 0.9645
vn 1.0000 0.0048 0.0048
vn 0.9865 -0.1502 -0.0649
vn 0.9894 0.1188 -0.0834
vn 0.9821 0.1332 0.1332
vn 1.0000 -0.0000 0.0000
vn 0.9996 0.0207 -0.0207
vn 0.9808 -0.1532 0.1204
vn 1.0000 -0.0056 0.0056
vn 0.9989 -0.0374 0.0286
vn 0.9961 -0.0627 -0.0627
vn 1.0000 0.0040 -0.0040
vn 0.9974 0.0438 0.0573
vn 0.9974 0.0505 -0.0505
vn -0.9872 -0.1460 0.0642
vn -0.9996 -0.0020 0.0283
vn -0.9995 0.0296 0.0116
vn -0.9997 0.0187 -0.0187
vn -0.9901 0.0729 0.1196
vn -0.9971 -0.0384 0.0655
vn -0.9955 -0.0894 0.0324
vn -1.0000 -0.0053 -0.0053
vn -0.9994 0.0219 -0.0254
vn -0.9996 0.0238 0.0182
vn -0.9999 0.0074 0.0074
vn -0.9997 -0.0186 0.0186
vn 0.0002 1.0000 -0.0010
vn -0.0090 0.3064 0.9519
vn -0.0064 0.2916 0.9565
vn -0.1096 0.1264 0.9859
vn 0.0095 0.0708 0.9974
vn -0.1038 -0.5486 0.8296
vn 0.0046 -0.3850 0.9229
vn 0.0781 -0.1445 0.9864
vn -0.0474 -0.1262 0.9909
vn 0.0009 0.2176 0.9760
vn 0.0800 0.1677 0.9826
vn 0.0733 0.0159 0.9972
vn -0.0252 0.0288 0.9993
vn -0.1891 0.4977 -0.8465
vn 0.3899 0.3502 -0.8517
vn -0.1689 0.2613 -0.9504
vn 0.0106 0.2276 -0.9737
vn 0.0532 -0.2532 -0.9660
vn -0.0640 -0.2562 -0.9645
vn 0.1185 -0.1114 -0.9867
vn -0.0367 -0.0885 -0.9954
vn 0.0266 -0.2356 -0.9715
vn -0.0865 -0.1413 -0.9862
vn 0.0148 -0.0936 -0.9955
vn -0.0288 -0.0749 -0.9968
usemtl Material
s off
f 100//1 60//1 3//1 21//1
f 72//2 56//2 4//2 14//2
f 64//3 68//3 15//3 16//3
f 68//4 72//4 14//4 15//4
f 24//5 28//5 14//5 4//5
f 28//6 32//6 15//6 14//6
f 32//7 36//7 16//7 15//7
f 60//8 76//8 11//8 3//8
f 76//9 80//9 12//9 11//9
f 80//10 84//10 13//10 12//10
f 20//11 40//11 8//11 2//11
f 40//12 44//12 9//12 8//12
f 44//13 48//13 10//13 9//13
f 6//14 7//14 45//14 41//14
f 41//15 45//15 46//15 42//15
f 42//15 46//15 47//15 43//15
f 43//16 47//16 48//16 44//16
f 5//17 6//17 41//17 37//17
f 37//18 41//18 42//18 38//18
f 38//19 42//19 43//19 39//19
f 39//20 43//20 44//20 40//20
f 1//21 5//21 37//21 17//21
f 17//11 37//11 38//11 18//11
f 18//22 38//22 39//22 19//22
f 19//23 39//23 40//23 20//23
f 12//24 13//24 33//24 29//24
f 29//25 33//25 34//25 30//25
f 30//26 34//26 35//26 31//26
f 31//27 35//27 36//27 32//27
f 11//28 12//28 29//28 25//28
f 25//29 29//29 30//29 26//29
f 26//30 30//30 31//30 27//30
f 27//31 31//31 32//31 28//31
f 3//32 11//32 25//32 21//32
f 21//33 25//33 26//33 22//33
f 22//34 26//34 27//34 23//34
f 23//35 27//35 28//35 24//35
f 56//1 88//1 24//1 4//1
f 88//1 92//1 23//1 24//1
f 92//1 96//1 22//1 23//1
f 96//1 100//1 21//1 22//1
f 49//36 50//36 52//36 51//36
f 19//1 20//1 97//1 93//1
f 93//1 97//1 98//1 94//1
f 94//1 98//1 99//1 95//1
f 95//1 99//1 100//1 96//1
f 18//1 19//1 93//1 89//1
f 89//1 93//1 94//1 90//1
f 90//1 94//1 95//1 91//1
f 91//1 95//1 96//1 92//1
f 17//1 18//1 89//1 85//1
f 85//1 89//1 90//1 86//1
f 86//1 90//1 91//1 87//1
f 87//1 91//1 92//1 88//1
f 1//1 17//1 85//1 53//1
f 53//1 85//1 86//1 54//1
f 54//1 86//1 87//1 55//1
f 55//1 87//1 88//1 56//1
f 9//37 10//37 81//37 77//37
f 77//38 81//38 82//38 78//38
f 78//39 82//39 83//39 79//39
f 79//40 83//40 84//40 80//40
f 8//41 9//41 77//41 73//41
f 73//42 77//42 78//42 74//42
f 74//43 78//43 79//43 75//43
f 75//44 79//44 80//44 76//44
f 2//45 8//45 73//45 57//45
f 57//46 73//46 74//46 58//46
f 58//47 74//47 75//47 59//47
f 59//48 75//48 76//48 60//48
f 6//49 5//49 69//49 65//49
f 65//50 69//50 70//50 66//50
f 66//51 70//51 71//51 67//51
f 67//52 71//52 72//52 68//52
f 7//53 6//53 65//53 61//53
f 61//54 65//54 66//54 62//54
f 62//55 66//55 67//55 63//55
f 63//56 67//56 68//56 64//56
f 5//57 1//57 53//57 69//57
f 69//58 53//58 54//58 70//58
f 70//59 54//59 55//59 71//59
f 71//60 55//60 56//60 72//60
f 20//1 2//1 57//1 97//1
f 97//1 57//1 58//1 98//1
f 98//1 58//1 59//1 99//1
f 99//1 59//1 60//1 100//1
