# Blender v2.79 (sub 0) OBJ File: ''
# www.blender.org
mtllib Block3.mtl
o Cube.000_Cube
v -0.600000 -1.000000 0.600000
v -0.600000 -1.000000 1.000000
v -1.000000 -1.000000 1.000000
v -1.000000 -1.000000 0.600000
v -0.661448 1.005178 0.568526
v -1.007173 0.984722 0.606271
v -0.976263 1.019145 1.018844
v -0.662456 1.007435 0.997877
v 0.847147 0.602701 0.617313
v 0.992933 0.985131 0.606577
v 1.024029 1.019521 1.020300
v 0.874333 0.589673 1.016087
v -0.666266 0.678601 0.998196
v -1.103723 0.597799 0.989328
v -1.007752 0.487336 -0.386288
v -0.930543 0.977463 -0.628383
v -0.976436 1.019177 -0.979476
v -1.125301 0.590256 -0.987513
v -0.720563 -0.480524 -1.013493
v -0.600000 -1.000000 -1.000000
v -1.000000 -1.000000 -1.000000
v -0.979963 -0.620735 -0.979112
v -0.662216 1.007338 -1.002312
v -0.764784 0.445576 -1.008750
v -0.430467 0.142902 -1.017910
v -1.038786 0.192381 -0.961186
v -0.803571 -0.247569 -0.978499
v -0.974935 -0.214590 -0.994028
v -1.000000 -1.000000 -0.600000
v -1.001622 -0.642667 -0.541202
v -1.003369 -0.145824 -0.560322
v -1.000000 0.200000 -0.600000
v -0.467535 -0.517841 0.987878
v -0.980140 -0.620176 1.020163
v -0.624062 -0.175835 1.000000
v -0.975443 -0.213310 1.006796
v -0.632998 0.228057 1.022687
v -1.037788 0.190844 1.040365
v 1.000000 -1.000000 0.600000
v 0.975727 -0.708205 0.602493
v 1.017439 -0.615597 1.020035
v 1.000000 -1.000000 1.000000
v 1.033458 -0.148979 0.607890
v 1.024714 -0.216789 1.006326
v 0.956280 0.308846 0.649934
v 0.963266 0.187938 1.038634
v 0.715433 0.738456 0.933399
v 0.691474 0.314151 0.987477
v 0.155148 0.717808 1.012503
v 0.153409 0.218678 0.956318
v -0.182150 0.512052 0.942924
v -0.167200 0.297951 1.011023
v 0.744965 -0.101335 0.998581
v 0.301235 -0.105564 1.007677
v -0.351127 -0.134126 0.991960
v 0.668817 -0.682431 0.986636
v 0.344277 -0.345596 0.973864
v 0.032141 -0.443366 0.984413
v 0.600000 -1.000000 1.000000
v 0.200000 -1.000000 1.000000
v -0.200000 -1.000000 1.000000
v 1.024844 -0.215097 -0.994639
v 1.020172 -0.619836 -0.977929
v 0.711257 -0.564902 -1.003458
v 0.486009 -0.207260 -0.970098
v 0.346622 -0.573259 -1.015486
v 0.071488 -0.208003 -0.986426
v -0.117600 -0.620725 -1.020872
v -0.384425 -0.220031 -0.967696
v 0.961172 0.187366 -0.962041
v 0.766268 0.111787 -0.990386
v 0.402782 0.153637 -1.021422
v 0.002101 0.175648 -1.021349
v 0.875368 0.589679 -0.986977
v 0.448013 0.681002 -0.959912
v 0.252492 0.432024 -1.049939
v -0.318412 0.720123 -0.956479
v 1.024554 1.018769 -0.980129
v 0.571849 1.018551 -0.925107
v 0.200000 1.000000 -1.000000
v -0.201699 1.011116 -0.953314
v 1.000962 -0.998354 -0.999599
v 0.600000 -1.000000 -1.000000
v 0.200000 -1.000000 -1.000000
v -0.200000 -1.000000 -1.000000
v 0.575950 1.020795 1.079248
v 0.200069 1.004674 0.999870
v -0.201276 1.010649 1.046617
v 0.713874 0.924431 0.767465
v 0.357865 0.988583 0.740282
v -0.234936 0.990402 0.655883
v 0.600000 -1.000000 0.600000
v 0.200000 -1.000000 0.600000
v -0.200000 -1.000000 0.600000
v -0.200000 -1.000000 -0.600000
v -0.600000 -1.000000 -0.600000
v -0.200000 -1.000000 -0.200000
v -0.600000 -1.000000 -0.200000
v -0.200000 -1.000000 0.200000
v -0.600000 -1.000000 0.200000
v 0.200000 -1.000000 -0.600000
v 0.200000 -1.000000 -0.200000
v 0.200000 -1.000000 0.200000
v 0.600000 -1.000000 -0.600000
v 0.600000 -1.000000 -0.200000
v 0.600000 -1.000000 0.200000
v 1.000000 -1.000000 -0.600000
v 1.000000 -1.000000 -0.200000
v 1.000000 -1.000000 0.200000
v -0.691441 1.002115 -0.693554
v -0.200000 1.000000 -0.600000
v -0.661086 0.990661 -0.234631
v -0.213098 1.000932 -0.140228
v -0.686953 1.034771 0.109753
v -0.020347 0.979951 0.271881
v 0.394655 1.032028 -0.654974
v 0.327047 0.982806 -0.058803
v 0.131140 1.006274 0.239783
v 0.730708 0.932372 -0.586989
v 0.772769 0.945443 0.102557
v 0.670768 0.985456 0.329862
v 1.069779 0.977668 -0.628793
v 0.980378 0.972324 -0.213724
v 1.106412 1.012980 0.238905
v 0.991861 0.484985 -0.466330
v 1.017078 -0.003835 -0.543545
v 0.881641 0.725598 -0.244354
v 0.970314 0.295730 -0.319056
v 0.969253 0.766959 0.051326
v 0.951079 0.189759 0.190445
v 0.986839 -0.386963 -0.637517
v 1.008038 -0.136562 -0.174525
v 1.018155 -0.094867 0.268860
v 0.985100 -0.705248 -0.560577
v 0.976033 -0.503519 -0.133446
v 0.986965 -0.558325 0.259897
v -0.966361 0.574933 0.682527
v -0.990511 0.304443 0.675776
v -0.971281 0.481679 0.391634
v -0.996065 0.275185 0.107000
v -1.020142 0.612674 -0.161000
v -0.998229 0.255159 -0.279226
v -0.948989 0.032288 0.695824
v -0.934764 -0.065695 0.102691
v -0.952987 -0.200000 -0.200000
v -0.970802 -0.421116 0.574337
v -0.957329 -0.417711 0.231244
v -0.984165 -0.514375 -0.193956
v -1.000000 -1.000000 0.200000
v -1.000000 -1.000000 -0.200000
v -0.892286 1.014339 0.240202
v -1.020743 0.973622 -0.212892
vt 0.200000 0.800000
vt 0.200000 1.000000
vt 0.000000 1.000000
vt 0.000000 0.800000
vt 0.277056 0.800049
vt -0.003586 0.803136
vt 0.011869 1.009422
vt 0.168772 0.998939
vt 0.776950 0.767246
vt 0.992566 0.803288
vt 1.009760 1.010150
vt 0.797902 0.994851
vt 0.179832 0.774856
vt 0.168772 1.003717
vt 0.011869 1.009573
vt -0.051862 0.798900
vt 0.844431 0.155550
vt 0.988732 0.185809
vt 1.009588 0.010262
vt 0.795128 0.006243
vt 0.200000 0.200000
vt 0.200000 0.000000
vt 0.000000 0.000000
vt 0.010019 0.189633
vt 0.168892 0.003669
vt 0.200000 -0.200000
vt -0.062650 -0.204872
vt 0.011782 0.009588
vt 0.200000 0.800000
vt 0.200000 0.600000
vt -0.019393 0.596190
vt -0.062650 0.795128
vt 0.200000 0.400000
vt 0.012533 0.392705
vt 0.000000 0.200000
vt 0.200000 0.200000
vt 0.189633 0.010444
vt 0.358154 0.245346
vt 0.392705 0.002986
vt 0.600000 0.200000
vt 0.596190 0.019407
vt 0.200000 0.000000
vt 0.187970 0.184599
vt 0.009930 0.189912
vt 0.000000 0.000000
vt 0.187969 0.412082
vt 0.012279 0.393345
vt 0.233202 0.541142
vt -0.018894 0.595422
vt 0.000000 0.800000
vt 0.236786 0.760126
vt 0.192201 1.010017
vt 0.000000 1.000000
vt 0.351552 0.747661
vt 0.391605 1.003163
vt 0.571001 0.758791
vt 0.593969 1.019317
vt 0.981633 0.593969
vt 0.947468 0.797902
vt 0.764400 0.790406
vt 0.845737 0.657076
vt 0.549891 0.808154
vt 0.619778 0.566758
vt 0.330160 0.800632
vt 0.400000 0.600000
vt 0.012357 0.391605
vt -0.018367 0.593969
vt -0.154263 0.657076
vt -0.127517 0.449333
vt 0.872483 0.449333
vt 0.600000 0.400000
vt 0.324436 0.432937
vt 0.008719 0.192201
vt -0.200000 0.200000
vt 0.800000 0.200000
vt 0.642922 0.160376
vt 0.415453 0.184599
vt 0.000000 0.000000
vt -0.200000 0.000000
vt 0.800000 0.000000
vt 0.600000 0.000000
vt 0.400000 0.000000
vt 0.012422 0.392451
vt 0.010086 0.190082
vt -0.235634 0.264928
vt -0.166781 0.446533
vt 0.833219 0.446533
vt 0.764366 0.264928
vt 0.600000 0.200000
vt 0.600000 0.400000
vt 0.350488 0.148897
vt 0.417576 0.438737
vt 0.980586 0.593683
vt 1.012422 0.392451
vt 0.837901 0.639094
vt 0.600000 0.600000
vt 0.400000 0.600000
vt 0.937684 0.794840
vt 0.800000 0.800000
vt 0.515516 0.752052
vt 0.400000 0.800000
vt 0.012277 0.009385
vt -0.062316 -0.205160
vt -0.200000 -0.200000
vt -0.214076 0.009275
vt 0.785924 0.009275
vt 0.800000 -0.200000
vt 0.515516 -0.247948
vt 0.600000 0.000000
vt 0.400000 -0.200000
vt 0.399150 0.005558
vt 0.000481 0.000823
vt -0.200000 0.000000
vt 0.800000 0.000000
vt 0.600000 0.000000
vt 0.400000 0.000000
vt 1.012015 1.009760
vt 0.787975 1.010397
vt 0.600034 1.002337
vt 0.399362 1.005324
vt 0.996467 0.803288
vt 0.835100 0.833995
vt 0.787975 1.039624
vt 1.012015 1.010150
vt 0.678933 0.870141
vt 0.600034 0.999935
vt 0.427837 0.736410
vt 0.399362 1.023309
vt -0.200000 1.000000
vt -0.200000 0.800000
vt 0.800000 0.800000
vt 0.800000 1.000000
vt 0.600000 1.000000
vt 0.600000 0.800000
vt 0.400000 1.000000
vt 0.400000 0.800000
vt 0.400000 0.200000
vt 0.200000 0.200000
vt 0.400000 0.400000
vt 0.200000 0.400000
vt 0.400000 0.600000
vt 0.200000 0.600000
vt 0.600000 0.200000
vt 0.600000 0.400000
vt 0.600000 0.600000
vt 0.800000 0.200000
vt 0.800000 0.400000
vt 0.800000 0.600000
vt 0.000481 0.000200
vt 0.000000 0.200000
vt -0.200000 0.200000
vt 0.000000 0.400000
vt -0.200000 0.400000
vt 0.000000 0.600000
vt -0.200000 0.600000
vt 0.399150 0.023343
vt 0.168892 -0.001156
vt 0.154280 0.153223
vt 0.400000 0.200000
vt 0.206460 0.321638
vt 0.362579 0.360772
vt 0.156524 0.554876
vt 0.296198 0.637399
vt 0.697327 0.172513
vt 0.475504 0.455267
vt 0.565570 0.619891
vt 0.785924 0.037446
vt 0.864714 0.325936
vt 0.886385 0.551279
vt 0.875974 0.737227
vt 0.012277 0.009935
vt -0.214076 0.037446
vt -0.135286 0.325936
vt 0.034889 0.185603
vt -0.113615 0.551279
vt -0.009811 0.393138
vt 0.990189 0.393138
vt 1.053206 0.619452
vt 0.053206 0.619452
vt -0.124026 0.737227
vt -0.164900 0.833995
vt -0.003533 0.803288
vt 0.593683 0.018980
vt 0.794840 0.006512
vt 0.838111 0.166802
vt 0.577164 0.165902
vt 0.780621 0.442784
vt 0.502145 0.463402
vt 0.793327 0.608508
vt 0.610699 0.607961
vt 0.392451 0.002681
vt 0.367619 0.134081
vt 0.430497 0.413227
vt 0.380549 0.678558
vt 0.190082 0.011036
vt 0.200000 0.200000
vt 0.297791 0.490101
vt 0.228405 0.702513
vt 0.000823 0.000200
vt 0.595422 0.020183
vt 0.798900 -0.005336
vt 0.872037 -0.279104
vt 0.652222 -0.162112
vt 0.652222 0.837888
vt 0.872037 0.720896
vt 0.803237 0.598501
vt 0.600000 0.600000
vt 0.832759 0.498266
vt 0.600000 0.400000
vt 0.393345 0.003398
vt 0.400000 -0.200000
vt 0.400000 0.800000
vt 0.381551 0.572098
vt 0.400000 0.400000
vt 0.189912 0.010081
vt 0.200000 -0.200000
vt 0.200000 0.800000
vt 0.139937 0.671715
vt 0.200000 0.400000
vt 0.000000 -0.200000
vt 0.000000 0.600000
vt 0.000000 0.400000
vt 0.798900 0.994664
vt 1.009573 1.009422
vt 0.992361 0.803136
vt 1.007169 0.620101
vt 0.986811 0.393554
vt 1.009385 0.009935
vt 0.988834 0.185603
vt 0.986162 0.393138
vt 1.006490 0.619452
vt 0.168892 0.998844
vt 0.011782 1.010262
vt 0.034728 1.185809
vt 0.154280 1.153223
vt 0.034728 0.185809
vt -0.010372 0.393554
vt 0.053857 0.620101
vn 0.0000 -1.0000 -0.0000
vn -0.0371 0.9991 0.0208
vn -0.0319 0.9995 -0.0043
vn -0.0171 0.9989 -0.0429
vn 0.9380 -0.3417 -0.0583
vn 0.0200 -0.0424 0.9989
vn -0.9374 0.2825 0.2038
vn -0.0526 0.0023 -0.9986
vn -0.0584 0.0294 -0.9979
vn -0.0963 -0.0821 -0.9920
vn -0.0515 0.0118 -0.9986
vn -0.0500 0.0253 -0.9984
vn -0.9993 0.0277 -0.0251
vn -0.9983 0.0015 -0.0575
vn -0.9966 -0.0799 0.0207
vn -0.9748 -0.1727 0.1412
vn 0.0371 -0.0159 0.9992
vn 0.0435 0.0105 0.9990
vn 0.0388 -0.0660 0.9971
vn -0.0018 0.0875 0.9962
vn 0.9986 0.0118 -0.0523
vn 0.9970 -0.0680 -0.0382
vn 0.9871 0.1552 0.0394
vn 0.9617 0.2742 0.0049
vn -0.2554 0.0694 0.9643
vn 0.0440 -0.0035 0.9990
vn -0.0257 0.0162 0.9995
vn 0.0841 0.1435 0.9861
vn -0.1247 -0.0431 0.9913
vn -0.0301 0.0760 0.9967
vn 0.0421 0.0406 0.9983
vn 0.0353 -0.0572 0.9977
vn -0.0648 0.0073 0.9979
vn -0.0284 -0.0545 0.9981
vn 0.0041 -0.0719 0.9974
vn 0.0173 -0.0159 0.9997
vn -0.0442 -0.0041 0.9990
vn 0.0011 0.0404 0.9992
vn 0.0105 0.0312 0.9995
vn 0.0017 0.0261 0.9997
vn 0.0028 0.0227 -0.9997
vn 0.0349 0.1099 -0.9933
vn -0.0204 0.0924 -0.9955
vn -0.0070 0.1069 -0.9942
vn 0.0039 0.1307 -0.9914
vn 0.0197 0.1484 -0.9887
vn 0.0037 0.0159 -0.9999
vn 0.0535 -0.1285 -0.9903
vn -0.0230 -0.0947 -0.9952
vn 0.0181 -0.1348 -0.9907
vn 0.0022 0.0066 -1.0000
vn 0.1754 0.0992 -0.9795
vn -0.1000 -0.0133 -0.9949
vn -0.0594 0.0262 -0.9979
vn -0.0134 0.0695 -0.9975
vn 0.0196 0.1020 -0.9946
vn -0.0839 0.0838 -0.9929
vn 0.2474 0.0709 -0.9663
vn -0.1211 0.0703 -0.9902
vn 0.1167 -0.0188 -0.9930
vn 0.0377 0.0163 -0.9992
vn 0.0160 -0.0268 -0.9995
vn 0.0088 -0.0476 -0.9988
vn -0.0128 -0.0387 -0.9992
vn -0.0886 -0.2042 0.9749
vn 0.0086 -0.2265 0.9740
vn 0.0004 -0.1152 0.9933
vn -0.0146 -0.1242 0.9921
vn -0.1384 0.9709 -0.1954
vn 0.0864 0.9850 -0.1492
vn 0.0099 0.9985 -0.0539
vn 0.0173 0.9995 -0.0281
vn 0.0010 -1.0000 -0.0010
vn 0.0005 -1.0000 -0.0005
vn 0.0021 -1.0000 -0.0021
vn -0.0054 0.9997 0.0244
vn -0.0110 0.9999 0.0117
vn 0.0494 0.9979 -0.0414
vn 0.0555 0.9978 0.0351
vn -0.0234 0.9995 -0.0234
vn -0.0133 0.9989 0.0447
vn -0.0116 0.9999 -0.0036
vn -0.0335 0.9994 0.0086
vn 0.1094 0.9938 0.0222
vn 0.1637 0.9860 0.0310
vn 0.0780 0.9941 -0.0758
vn 0.0867 0.9945 0.0585
vn -0.0330 0.9811 0.1909
vn -0.1392 0.9902 -0.0129
vn -0.1534 0.9819 -0.1111
vn -0.0865 0.9910 0.1018
vn 0.9816 0.1305 -0.1391
vn 0.9666 0.0795 0.2436
vn 0.9948 0.0646 -0.0793
vn 0.9850 0.1261 0.1178
vn 0.9991 0.0430 -0.0029
vn 0.9995 0.0109 0.0284
vn 0.9884 0.1506 0.0196
vn 0.9987 0.0333 -0.0375
vn 0.9812 0.1887 -0.0405
vn 0.9984 0.0424 -0.0362
vn 0.9955 0.0035 0.0951
vn 1.0000 0.0063 0.0007
vn 0.9988 -0.0474 0.0105
vn 0.9981 -0.0606 -0.0054
vn 0.9998 -0.0160 -0.0129
vn 0.9996 -0.0276 -0.0101
vn 1.0000 -0.0015 0.0039
vn 0.9990 -0.0103 0.0430
vn 0.9988 0.0492 -0.0011
vn 0.9990 0.0454 -0.0056
vn 0.9990 0.0444 0.0055
vn 0.9985 0.0487 0.0249
vn -0.9586 -0.0770 -0.2740
vn -0.9946 0.1037 -0.0027
vn -0.9982 -0.0310 0.0506
vn -0.9990 -0.0433 -0.0051
vn -0.9722 -0.1456 -0.1835
vn -0.9862 -0.1651 0.0107
vn -0.9902 -0.1271 0.0578
vn -0.9962 -0.0407 0.0763
vn -0.9990 0.0342 -0.0272
vn -0.9979 0.0547 -0.0350
vn -0.9956 0.0872 0.0340
vn -0.9951 0.0389 0.0913
vn -0.9987 0.0511 0.0010
vn -0.9983 0.0566 -0.0135
vn -0.9984 0.0563 -0.0081
vn -0.9983 0.0583 0.0017
vn -0.9983 0.0577 0.0049
vn -0.9990 0.0384 0.0240
vn -0.9991 0.0344 0.0234
vn -0.9997 0.0153 0.0207
vn -0.9837 0.0940 -0.1531
vn -0.9863 0.0001 -0.1651
vn -0.9748 0.1272 0.1833
vn -0.9859 0.0321 -0.1639
vn 0.9382 -0.2681 -0.2188
vn 0.9239 -0.1587 0.3481
vn 0.9140 -0.3384 -0.2239
vn 0.8889 -0.4380 0.1342
vn -0.0118 0.9974 0.0712
vn -0.0676 0.9976 0.0128
vn -0.0910 0.9914 -0.0937
vn -0.0624 0.9980 0.0132
vn -0.0848 0.9954 -0.0436
usemtl Material.001
s 1
f 1/1/1 2/2/1 3/3/1 4/4/1
f 5/5/2 6/6/3 7/7/4 8/8/4
f 9/9/5 10/10/5 11/11/5 12/12/5
f 13/13/6 8/14/6 7/15/6 14/16/6
f 15/17/7 16/18/7 17/19/7 18/20/7
f 19/21/8 20/22/8 21/23/8 22/24/8
f 23/25/9 24/26/9 18/27/9 17/28/9
f 24/29/10 25/30/10 26/31/10 18/32/10
f 25/30/11 27/33/11 28/34/11 26/31/11
f 27/33/12 19/21/12 22/24/12 28/34/12
f 29/35/13 30/36/13 22/37/13 21/23/13
f 30/36/14 31/38/14 28/39/14 22/37/14
f 31/38/15 32/40/15 26/41/15 28/39/15
f 32/40/16 15/17/16 18/20/16 26/41/16
f 2/42/17 33/43/17 34/44/17 3/45/17
f 33/43/18 35/46/18 36/47/18 34/44/18
f 35/46/19 37/48/19 38/49/19 36/47/19
f 37/48/20 13/13/20 14/16/20 38/49/20
f 39/50/21 40/51/21 41/52/21 42/53/21
f 40/51/22 43/54/22 44/55/22 41/52/22
f 43/54/23 45/56/23 46/57/23 44/55/23
f 45/56/24 9/9/24 12/12/24 46/57/24
f 46/58/25 12/59/25 47/60/25 48/61/25
f 48/61/26 47/60/26 49/62/26 50/63/26
f 50/63/27 49/62/27 51/64/27 52/65/27
f 52/65/28 51/64/28 13/13/28 37/48/28
f 44/66/29 46/67/29 48/68/29 53/69/29
f 53/70/30 48/61/30 50/63/30 54/71/30
f 54/71/31 50/63/31 52/65/31 55/72/31
f 55/72/32 52/65/32 37/48/32 35/46/32
f 41/73/33 44/66/33 53/69/33 56/74/33
f 56/75/34 53/70/34 54/71/34 57/76/34
f 57/76/35 54/71/35 55/72/35 58/77/35
f 58/77/36 55/72/36 35/46/36 33/43/36
f 42/78/37 41/73/37 56/74/37 59/79/37
f 59/80/38 56/75/38 57/76/38 60/81/38
f 60/81/39 57/76/39 58/77/39 61/82/39
f 61/82/40 58/77/40 33/43/40 2/42/40
f 62/83/41 63/84/41 64/85/41 65/86/41
f 65/87/42 64/88/42 66/89/42 67/90/42
f 67/90/43 66/89/43 68/91/44 69/92/45
f 69/92/45 68/91/44 19/21/46 27/33/46
f 70/93/47 62/94/47 65/87/47 71/95/47
f 71/95/48 65/87/48 67/90/48 72/96/48
f 72/96/49 67/90/49 69/92/49 73/97/49
f 73/97/50 69/92/50 27/33/50 25/30/50
f 74/98/51 70/93/51 71/95/51 75/99/51
f 75/99/52 71/95/52 72/96/52 76/100/52
f 76/100/53 72/96/53 73/97/54 77/101/55
f 77/101/55 73/97/54 25/30/56 24/29/56
f 78/102/57 74/103/57 75/104/57 79/105/57
f 79/106/58 75/107/58 76/108/58 80/109/58
f 80/109/59 76/108/59 77/110/59 81/111/59
f 81/111/60 77/110/60 24/26/60 23/25/60
f 63/84/61 82/112/61 83/113/61 64/85/61
f 64/88/62 83/114/62 84/115/62 66/89/62
f 66/89/63 84/115/63 85/116/63 68/91/63
f 68/91/64 85/116/64 20/22/64 19/21/64
f 12/59/65 11/117/65 86/118/65 47/60/65
f 47/60/66 86/118/66 87/119/66 49/62/66
f 49/62/67 87/119/67 88/120/67 51/64/67
f 51/64/68 88/120/68 8/14/68 13/13/68
f 10/121/69 89/122/69 86/123/69 11/124/69
f 89/122/70 90/125/70 87/126/70 86/123/70
f 90/125/71 91/127/71 88/128/71 87/126/71
f 91/127/72 5/5/72 8/8/72 88/128/72
f 39/50/1 42/53/1 59/129/1 92/130/1
f 92/131/1 59/132/1 60/133/1 93/134/1
f 93/134/1 60/133/1 61/135/1 94/136/1
f 94/136/1 61/135/1 2/2/1 1/1/1
f 85/116/1 95/137/1 96/138/1 20/22/1
f 95/137/1 97/139/1 98/140/1 96/138/1
f 97/139/1 99/141/1 100/142/1 98/140/1
f 99/141/1 94/136/1 1/1/1 100/142/1
f 84/115/1 101/143/1 95/137/1 85/116/1
f 101/143/1 102/144/1 97/139/1 95/137/1
f 102/144/1 103/145/1 99/141/1 97/139/1
f 103/145/1 93/134/1 94/136/1 99/141/1
f 83/114/73 104/146/74 101/143/1 84/115/1
f 104/146/74 105/147/1 102/144/1 101/143/1
f 105/147/1 106/148/1 103/145/1 102/144/1
f 106/148/1 92/131/1 93/134/1 103/145/1
f 82/149/75 107/150/73 104/151/74 83/113/73
f 107/150/73 108/152/1 105/153/1 104/151/74
f 108/152/1 109/154/1 106/155/1 105/153/1
f 109/154/1 39/50/1 92/130/1 106/155/1
f 81/156/76 23/157/76 110/158/76 111/159/76
f 111/159/77 110/158/77 112/160/77 113/161/77
f 113/161/78 112/160/78 114/162/78 115/163/78
f 115/163/79 114/162/79 5/5/79 91/127/79
f 80/109/80 81/156/80 111/159/80 116/164/80
f 116/164/81 111/159/81 113/161/81 117/165/81
f 117/165/82 113/161/82 115/163/82 118/166/82
f 118/166/83 115/163/83 91/127/83 90/125/83
f 79/167/84 80/109/84 116/164/84 119/168/84
f 119/168/85 116/164/85 117/165/85 120/169/85
f 120/169/86 117/165/86 118/166/86 121/170/86
f 121/170/87 118/166/87 90/125/87 89/122/87
f 78/171/88 79/172/88 119/173/88 122/174/88
f 122/174/89 119/173/89 120/175/89 123/176/89
f 123/177/90 120/169/90 121/170/90 124/178/90
f 124/179/91 121/180/91 89/181/91 10/182/91
f 70/183/92 74/184/92 125/185/92 126/186/92
f 126/186/93 125/185/93 127/187/93 128/188/93
f 128/188/94 127/187/94 129/189/94 130/190/94
f 130/190/95 129/189/95 9/9/95 45/56/95
f 62/191/96 70/183/96 126/186/96 131/192/96
f 131/192/97 126/186/97 128/188/97 132/193/97
f 132/193/98 128/188/98 130/190/98 133/194/98
f 133/194/99 130/190/100 45/56/100 43/54/101
f 63/195/102 62/191/102 131/192/102 134/196/102
f 134/196/103 131/192/104 132/193/105 135/197/106
f 135/197/106 132/193/105 133/194/99 136/198/107
f 136/198/107 133/194/99 43/54/101 40/51/108
f 82/199/109 63/195/109 134/196/109 107/150/109
f 107/150/110 134/196/103 135/197/106 108/152/111
f 108/152/111 135/197/106 136/198/107 109/154/112
f 109/154/112 136/198/107 40/51/108 39/50/113
f 38/200/114 14/201/114 137/202/114 138/203/114
f 138/204/115 137/205/115 139/206/115 140/207/115
f 140/207/116 139/206/116 141/208/116 142/209/116
f 142/209/117 141/208/117 15/17/117 32/40/117
f 36/210/118 38/200/118 138/203/118 143/211/118
f 143/212/119 138/204/119 140/207/119 144/213/119
f 144/213/120 140/207/120 142/209/120 145/214/120
f 145/214/121 142/209/121 32/40/121 31/38/121
f 34/215/122 36/210/122 143/211/122 146/216/122
f 146/217/123 143/212/123 144/213/123 147/218/123
f 147/218/124 144/213/124 145/214/124 148/219/124
f 148/219/125 145/214/125 31/38/125 30/36/125
f 3/45/126 34/215/126 146/216/127 4/220/128
f 4/4/128 146/217/127 147/218/129 149/221/130
f 149/221/130 147/218/129 148/219/131 150/222/132
f 150/222/132 148/219/131 30/36/133 29/35/133
f 14/223/134 7/224/134 6/225/134 137/205/134
f 137/205/135 6/225/135 151/226/135 139/206/135
f 139/206/136 151/226/136 152/227/136 141/208/136
f 141/208/137 152/227/137 16/18/137 15/17/137
f 74/184/138 78/228/138 122/229/138 125/185/138
f 125/185/139 122/229/139 123/230/139 127/187/139
f 127/187/140 123/230/140 124/231/140 129/189/140
f 129/189/141 124/231/141 10/10/141 9/9/141
f 23/232/142 17/233/142 16/234/142 110/235/142
f 110/158/143 16/236/143 152/237/143 112/160/143
f 112/160/144 152/237/144 151/238/145 114/162/146
f 114/162/146 151/238/145 6/6/3 5/5/2
f 20/22/1 96/138/1 29/35/1 21/23/1
f 96/138/1 98/140/1 150/222/1 29/35/1
f 98/140/1 100/142/1 149/221/1 150/222/1
f 100/142/1 1/1/1 4/4/1 149/221/1
