# Blender v2.79 (sub 0) OBJ File: 'Ground.obj'
# www.blender.org
mtllib Ground.mtl
o Cube.001
v -0.611697 -0.600000 0.600000
v -0.611697 -0.600000 1.000000
v -1.000000 -0.600000 1.000000
v -1.000000 -0.600000 0.600000
v -0.574402 -0.106424 -1.026595
v -0.611697 -0.600000 -1.000000
v -1.000000 -0.600000 -1.000000
v -1.004445 -0.205436 -1.078471
v -0.611697 0.600000 -1.000000
v -0.709842 0.095549 -0.936764
v -0.917422 0.184186 -0.863070
v -1.000000 0.600000 -1.000000
v -1.000000 -0.600000 -0.600000
v -1.013579 -0.365085 -0.695647
v -1.000000 0.200000 -0.600000
v -1.000000 0.600000 -0.600000
v -0.664744 -0.157992 0.975845
v -0.999560 -0.207551 0.921074
v -0.441623 0.224208 1.028887
v -0.904794 0.191549 1.135173
v -0.611697 0.600000 1.000000
v -1.000000 0.600000 1.000000
v 1.000000 -0.600000 0.600000
v 1.000000 -0.200000 0.600000
v 0.996622 -0.206876 0.911966
v 1.000000 -0.600000 1.000000
v 1.016222 0.105233 0.487771
v 1.094600 0.189141 1.137059
v 1.000000 0.600000 0.600000
v 1.000000 0.600000 1.000000
v 1.092195 0.183545 -0.863096
v 1.000000 0.600000 -1.000000
v 1.000000 0.600000 -0.600000
v 1.000000 0.200000 -0.600000
v 1.000000 0.600000 -0.200000
v 1.000000 0.200000 -0.200000
v 1.000000 0.600000 0.200000
v 1.000000 0.200000 0.200000
v 0.996463 -0.203611 -1.084968
v 1.000000 -0.200000 -0.600000
v 0.995196 -0.135916 -0.071136
v 0.967538 -0.369685 0.188820
v 1.000000 -0.600000 -1.000000
v 1.000000 -0.600000 -0.600000
v 1.000000 -0.600000 -0.200000
v 1.000000 -0.600000 0.200000
v -1.000000 0.600000 0.600000
v -0.985808 0.365835 0.685597
v -1.000000 0.600000 0.200000
v -1.012358 0.055597 0.125465
v -1.000000 0.600000 -0.200000
v -1.019078 0.075842 -0.103205
v -0.977246 0.020373 0.639619
v -0.992040 -0.064932 0.338219
v -1.000000 -0.200000 -0.200000
v -1.000000 -0.600000 0.200000
v -1.000000 -0.600000 -0.200000
v -0.611697 -0.600000 -0.600000
v -0.611697 -0.600000 -0.200000
v -0.611697 -0.600000 0.200000
v -1.000848 0.600988 0.999882
v 0.997784 0.600642 0.999689
v 0.997827 0.598634 -0.999450
v -1.000805 0.598980 -0.999257
v 0.588303 -0.600000 0.600000
v 0.588303 -0.600000 0.200000
v 0.188303 -0.600000 0.600000
v 0.188303 -0.600000 0.200000
v -0.211697 -0.600000 0.600000
v -0.211697 -0.600000 0.200000
v 0.588303 -0.600000 -0.200000
v 0.188303 -0.600000 -0.200000
v -0.211697 -0.600000 -0.200000
v 0.588303 -0.600000 -0.600000
v 0.188303 -0.600000 -0.600000
v -0.211697 -0.600000 -0.600000
v 0.588303 -0.600000 -1.000000
v 0.188303 -0.600000 -1.000000
v -0.211697 -0.600000 -1.000000
v 0.588303 0.600000 1.000000
v 0.512690 0.203743 1.122952
v 0.188303 0.600000 1.000000
v 0.145483 0.358329 1.070710
v -0.211697 0.600000 1.000000
v -0.121288 0.080491 1.032204
v 0.515178 -0.082310 0.885055
v 0.359677 -0.208413 0.951794
v 0.041976 -0.155180 1.003670
v 0.588303 -0.600000 1.000000
v 0.188303 -0.600000 1.000000
v -0.211697 -0.600000 1.000000
v 0.589208 -0.359022 -1.069681
v 0.573576 0.005361 -0.867625
v 0.188356 -0.008429 -1.049671
v 0.251649 0.381682 -0.919684
v -0.223947 -0.331822 -1.031365
v -0.077381 0.092741 -0.974620
v 0.588303 0.600000 -1.000000
v 0.188303 0.600000 -1.000000
v -0.211697 0.600000 -1.000000
vt 0.194151 0.800000
vt 0.194151 1.000000
vt 0.000000 1.000000
vt 0.000000 0.800000
vt 0.212799 0.446788
vt 0.194151 0.200000
vt 0.000000 0.200000
vt -0.002222 0.397282
vt 0.194151 0.800000
vt 0.145079 0.547774
vt 0.041289 0.592093
vt 0.000000 0.800000
vt 0.200000 0.200000
vt 0.317457 0.152176
vt 0.397282 -0.039235
vt 0.200000 0.000000
vt 0.600000 0.200000
vt 0.592093 0.068465
vt 0.800000 0.200000
vt 0.800000 0.000000
vt 0.194151 0.200000
vt 0.167628 0.421004
vt 0.000220 0.396224
vt 0.000000 0.200000
vt 0.279189 0.612104
vt 0.047603 0.595775
vt 0.194151 0.800000
vt 0.000000 0.800000
vt 0.200000 0.800000
vt 0.400000 0.800000
vt 0.396562 0.955983
vt 0.200000 1.000000
vt 0.552616 0.743886
vt 0.594571 1.068529
vt 0.800000 0.800000
vt 0.800000 1.000000
vt 0.591772 0.068452
vt 0.800000 0.000000
vt 0.800000 0.200000
vt 0.600000 0.200000
vt 0.800000 0.400000
vt 0.600000 0.400000
vt 0.800000 0.600000
vt 0.600000 0.600000
vt 0.398194 0.957516
vt 0.591772 1.068452
vt 0.600000 1.200000
vt 0.400000 1.200000
vt 0.400000 0.200000
vt 0.432042 0.464432
vt 0.315158 0.594410
vt 0.200000 0.000000
vt 0.398194 -0.042484
vt 0.200000 0.200000
vt 0.200000 0.400000
vt 0.200000 0.600000
vt 0.595775 0.067586
vt 0.800000 0.000000
vt 0.800000 -0.200000
vt 0.682917 -0.157202
vt 0.682917 0.842798
vt 0.800000 0.800000
vt 0.800000 0.600000
vt 0.527798 0.562733
vt 0.800000 0.400000
vt 0.537921 0.448397
vt 0.396224 0.960537
vt 0.595775 1.067586
vt 0.510186 0.819809
vt 0.467534 0.669109
vt 0.400000 0.400000
vt 0.200000 0.000000
vt 0.396224 -0.039463
vt 0.510186 -0.180191
vt 0.200000 -0.200000
vt 0.200000 0.800000
vt 0.200000 0.600000
vt 0.200000 0.400000
vt 0.194151 0.000000
vt 0.194151 0.200000
vt 0.000000 0.200000
vt 0.000000 0.000000
vt 0.194151 0.400000
vt 0.000000 0.400000
vt 0.194151 0.600000
vt 0.000000 0.600000
vt 0.999576 0.999941
vt 1.998892 0.999844
vt 1.998914 0.000275
vt 0.999597 0.000371
vt 0.000000 0.600000
vt 0.000000 0.800000
vt -0.205848 0.800000
vt -0.205848 0.600000
vt 0.794152 0.600000
vt 0.794152 0.800000
vt 0.594151 0.800000
vt 0.594151 0.600000
vt 0.394152 0.800000
vt 0.394152 0.600000
vt 0.000000 0.400000
vt -0.205848 0.400000
vt 0.794152 0.400000
vt 0.594151 0.400000
vt 0.394152 0.400000
vt 0.000000 0.200000
vt -0.205848 0.200000
vt 0.794152 0.200000
vt 0.594151 0.200000
vt 0.394152 0.200000
vt 0.000000 0.000000
vt -0.205848 0.000000
vt 0.794152 0.000000
vt 0.594151 0.000000
vt 0.394152 0.000000
vt 0.047300 0.594571
vt 0.000000 0.800000
vt -0.205848 0.800000
vt -0.243655 0.601871
vt 0.756345 0.601871
vt 0.794152 0.800000
vt 0.594151 0.800000
vt 0.572742 0.679165
vt 0.394152 0.800000
vt 0.439356 0.540245
vt 0.998311 0.396562
vt 1.047300 0.594571
vt 0.757589 0.458845
vt 0.679838 0.395793
vt 0.520988 0.422410
vt 0.000000 0.200000
vt -0.001689 0.396562
vt -0.242411 0.458845
vt -0.205848 0.200000
vt 0.794152 0.200000
vt 0.594151 0.200000
vt 0.394152 0.200000
vt 0.046098 0.591772
vt -0.001768 0.398194
vt -0.205396 0.320489
vt -0.213212 0.502680
vt 0.786788 0.502680
vt 0.794604 0.320489
vt 0.594178 0.495786
vt 0.625825 0.690841
vt 0.388027 0.334089
vt 0.461309 0.546371
vt 0.000000 0.800000
vt -0.205848 0.800000
vt 0.794152 0.800000
vt 0.594151 0.800000
vt 0.394152 0.800000
vt 0.998232 0.398194
vt 1.000000 0.200000
vt 0.794152 0.200000
vt 0.594151 0.200000
vt 0.394152 0.200000
vt 0.000000 1.000000
vt -0.205848 1.000000
vt 0.794152 1.000000
vt 0.594151 1.000000
vt 0.394152 1.000000
vn 0.0000 -1.0000 -0.0000
vn 0.0773 -0.1199 -0.9898
vn -0.1504 -0.2077 -0.9666
vn -0.0378 0.4557 -0.8893
vn -0.9993 -0.0337 -0.0185
vn -0.9843 0.1392 -0.1088
vn -0.9855 -0.1199 -0.1199
vn -0.0830 0.1170 0.9897
vn 0.0968 -0.3570 0.9291
vn 0.1112 0.2394 0.9645
vn 1.0000 0.0048 0.0048
vn 0.9865 -0.1502 -0.0649
vn 0.9894 0.1188 -0.0834
vn 0.9821 0.1332 0.1332
vn 1.0000 -0.0028 0.0028
vn 1.0000 -0.0000 0.0000
vn 1.0000 0.0005 -0.0005
vn 0.9996 0.0207 -0.0207
vn 0.9808 -0.1532 0.1204
vn 1.0000 -0.0051 0.0025
vn 1.0000 0.0045 0.0049
vn 0.9989 -0.0374 0.0286
vn 0.9961 -0.0627 -0.0627
vn 1.0000 0.0040 -0.0040
vn 1.0000 0.0044 0.0004
vn 0.9974 0.0438 0.0573
vn 0.9974 0.0505 -0.0505
vn -0.9872 -0.1460 0.0642
vn -0.9996 -0.0020 0.0283
vn -0.9995 0.0296 0.0116
vn -0.9997 0.0187 -0.0187
vn -0.9901 0.0729 0.1196
vn -0.9971 -0.0384 0.0655
vn -0.9955 -0.0894 0.0324
vn -1.0000 -0.0053 -0.0053
vn -0.9994 0.0219 -0.0254
vn -0.9996 0.0238 0.0182
vn -0.9999 0.0074 0.0074
vn -0.9997 -0.0186 0.0186
vn 0.0002 1.0000 -0.0010
vn -0.0090 0.3064 0.9519
vn -0.0064 0.2916 0.9565
vn -0.1096 0.1264 0.9859
vn 0.0095 0.0708 0.9974
vn -0.1038 -0.5486 0.8296
vn 0.0046 -0.3850 0.9229
vn 0.0781 -0.1445 0.9864
vn -0.0474 -0.1262 0.9909
vn 0.0009 0.2176 0.9760
vn 0.0800 0.1677 0.9826
vn 0.0733 0.0159 0.9972
vn -0.0252 0.0288 0.9993
vn -0.1891 0.4977 -0.8465
vn 0.3899 0.3502 -0.8517
vn -0.1689 0.2613 -0.9504
vn 0.0106 0.2276 -0.9737
vn 0.0532 -0.2532 -0.9660
vn -0.0640 -0.2562 -0.9645
vn 0.1185 -0.1114 -0.9867
vn -0.0367 -0.0885 -0.9954
vn 0.0266 -0.2356 -0.9715
vn -0.0865 -0.1413 -0.9862
vn 0.0148 -0.0936 -0.9955
vn -0.0288 -0.0749 -0.9968
usemtl Material.001
s 1
f 1/1/1 2/2/1 3/3/1 4/4/1
f 5/5/2 6/6/2 7/7/2 8/8/2
f 9/9/3 10/10/3 11/11/3 12/12/3
f 10/10/4 5/5/4 8/8/4 11/11/4
f 13/13/5 14/14/5 8/15/5 7/16/5
f 14/14/6 15/17/6 11/18/6 8/15/6
f 15/17/7 16/19/7 12/20/7 11/18/7
f 2/21/8 17/22/8 18/23/8 3/24/8
f 17/22/9 19/25/9 20/26/9 18/23/9
f 19/25/10 21/27/10 22/28/10 20/26/10
f 23/29/11 24/30/11 25/31/11 26/32/11
f 24/30/12 27/33/12 28/34/12 25/31/12
f 27/33/13 29/35/13 30/36/13 28/34/13
f 31/37/14 32/38/14 33/39/14 34/40/14
f 34/40/15 33/39/16 35/41/16 36/42/17
f 36/42/17 35/41/16 37/43/16 38/44/16
f 38/44/18 37/43/18 29/35/18 27/33/18
f 39/45/19 31/46/19 34/47/19 40/48/19
f 40/49/20 34/40/15 36/42/17 41/50/21
f 41/50/22 36/42/22 38/44/22 42/51/22
f 42/51/23 38/44/23 27/33/23 24/30/23
f 43/52/24 39/53/24 40/49/20 44/54/25
f 44/54/25 40/49/20 41/50/21 45/55/11
f 45/55/26 41/50/26 42/51/26 46/56/26
f 46/56/27 42/51/27 24/30/27 23/29/27
f 20/57/28 22/58/28 47/59/28 48/60/28
f 48/61/29 47/62/29 49/63/29 50/64/29
f 50/64/30 49/63/30 51/65/30 52/66/30
f 52/66/31 51/65/31 16/19/31 15/17/31
f 18/67/32 20/68/32 48/61/32 53/69/32
f 53/69/33 48/61/33 50/64/33 54/70/33
f 54/70/34 50/64/34 52/66/34 55/71/34
f 55/71/35 52/66/35 15/17/35 14/14/35
f 3/72/36 18/73/36 53/74/36 4/75/36
f 4/76/37 53/69/37 54/70/37 56/77/37
f 56/77/38 54/70/38 55/71/38 57/78/38
f 57/78/39 55/71/39 14/14/39 13/13/39
f 6/79/1 58/80/1 13/81/1 7/82/1
f 58/80/1 59/83/1 57/84/1 13/81/1
f 59/83/1 60/85/1 56/86/1 57/84/1
f 60/85/1 1/1/1 4/4/1 56/86/1
f 61/87/40 62/88/40 63/89/40 64/90/40
f 46/91/1 23/92/1 65/93/1 66/94/1
f 66/95/1 65/96/1 67/97/1 68/98/1
f 68/98/1 67/97/1 69/99/1 70/100/1
f 70/100/1 69/99/1 1/1/1 60/85/1
f 45/101/1 46/91/1 66/94/1 71/102/1
f 71/103/1 66/95/1 68/98/1 72/104/1
f 72/104/1 68/98/1 70/100/1 73/105/1
f 73/105/1 70/100/1 60/85/1 59/83/1
f 44/106/1 45/101/1 71/102/1 74/107/1
f 74/108/1 71/103/1 72/104/1 75/109/1
f 75/109/1 72/104/1 73/105/1 76/110/1
f 76/110/1 73/105/1 59/83/1 58/80/1
f 43/111/1 44/106/1 74/107/1 77/112/1
f 77/113/1 74/108/1 75/109/1 78/114/1
f 78/114/1 75/109/1 76/110/1 79/115/1
f 79/115/1 76/110/1 58/80/1 6/79/1
f 28/116/41 30/117/41 80/118/41 81/119/41
f 81/120/42 80/121/42 82/122/42 83/123/42
f 83/123/43 82/122/43 84/124/43 85/125/43
f 85/125/44 84/124/44 21/27/44 19/25/44
f 25/126/45 28/127/45 81/120/45 86/128/45
f 86/128/46 81/120/46 83/123/46 87/129/46
f 87/129/47 83/123/47 85/125/47 88/130/47
f 88/130/48 85/125/48 19/25/48 17/22/48
f 26/131/49 25/132/49 86/133/49 89/134/49
f 89/135/50 86/128/50 87/129/50 90/136/50
f 90/136/51 87/129/51 88/130/51 91/137/51
f 91/137/52 88/130/52 17/22/52 2/21/52
f 31/138/53 39/139/53 92/140/53 93/141/53
f 93/142/54 92/143/54 94/144/54 95/145/54
f 95/145/55 94/144/55 96/146/55 97/147/55
f 97/147/56 96/146/56 5/5/56 10/10/56
f 32/148/57 31/138/57 93/141/57 98/149/57
f 98/150/58 93/142/58 95/145/58 99/151/58
f 99/151/59 95/145/59 97/147/59 100/152/59
f 100/152/60 97/147/60 10/10/60 9/9/60
f 39/153/61 43/154/61 77/155/61 92/143/61
f 92/143/62 77/155/62 78/156/62 94/144/62
f 94/144/63 78/156/63 79/157/63 96/146/63
f 96/146/64 79/157/64 6/6/64 5/5/64
f 23/92/1 26/158/1 89/159/1 65/93/1
f 65/96/1 89/160/1 90/161/1 67/97/1
f 67/97/1 90/161/1 91/162/1 69/99/1
f 69/99/1 91/162/1 2/2/1 1/1/1
