# Blender v2.79 (sub 0) OBJ File: ''
# www.blender.org
mtllib TopBlock.mtl
o Cube.000_Cube
v -0.614749 1.036751 0.572884
v -1.007173 0.984722 0.606271
v -0.976263 1.019145 1.172822
v -0.662456 1.007435 0.997877
v 0.992933 0.985131 0.606577
v 1.024029 1.019521 1.176643
v -0.930543 0.977463 -0.628383
v -0.976436 1.019177 -0.821908
v -0.662216 1.007338 -1.002312
v 1.017439 -0.615597 1.022779
v 1.024554 1.018769 -0.823246
v 0.571849 1.018551 -0.823235
v 0.200000 1.000000 -1.000000
v -0.201699 1.011116 -0.953314
v 1.024603 0.819489 -0.822325
v -0.976214 0.819864 1.173743
v 0.571897 0.819271 -0.822314
v 1.110439 0.813700 0.239825
v 0.575950 1.020795 1.178855
v 0.200069 1.004674 0.997521
v -0.201276 1.010649 1.046617
v 0.385351 0.985560 0.722813
v 0.200000 1.000000 0.600000
v -0.239370 1.037480 0.576044
v 0.536446 0.891025 0.202159
v 0.992982 0.785851 0.607498
v -0.892238 0.815059 0.241123
v 0.200117 0.805394 0.998441
v -0.691393 0.809390 -0.692633
v -0.075556 0.885790 0.032811
v 0.200048 0.800720 0.600921
v -0.930495 0.778183 -0.627462
v 1.069828 0.778388 -0.627873
v -0.239322 0.838200 0.576965
v -0.407556 0.854603 0.275720
v -0.599952 0.800720 0.200921
v -1.007125 0.785442 0.607192
v -0.614701 0.837471 0.573805
v -0.662168 0.808058 -1.001391
v -0.976388 0.819897 -0.820987
v -1.020695 0.774342 -0.211971
v -0.579673 0.823617 -0.161847
v -0.691441 1.008670 -0.693554
v -0.200000 1.000000 -0.600000
v -0.579721 1.022897 -0.162768
v -0.274843 1.089278 -0.278456
v -0.600000 1.000000 0.200000
v -0.407604 1.053883 0.274799
v 0.394655 1.089766 -0.654974
v 0.162624 1.103685 -0.161784
v -0.075604 1.085070 0.031890
v 0.651463 0.985458 -0.437948
v 0.565542 1.087740 -0.203191
v 0.536398 1.090305 0.201238
v 1.069779 0.977668 -0.628793
v 0.980378 0.972324 -0.213724
v 1.110391 1.012980 0.238905
v -0.201651 0.811836 -0.952393
v 0.200048 0.800720 -0.999079
v 0.162672 0.904405 -0.160863
v -0.274795 0.889998 -0.277535
v 0.980427 0.773043 -0.212804
v 0.565590 0.888460 -0.202270
v 1.024077 0.820241 1.177564
v -0.201228 0.811368 1.047538
v -0.662407 0.808154 0.998798
v 0.651511 0.786178 -0.437027
v 0.385399 0.786280 0.723734
v 0.575998 0.821514 1.179776
v 0.394703 0.890486 -0.654053
v -0.199952 0.800720 -0.599079
v -0.892286 1.014339 0.240202
v -1.020743 0.973622 -0.212892
v 1.028241 -0.590864 1.135521
v 1.031729 -0.584528 1.122250
vn -0.0588 0.9983 -0.0061
vn -0.4346 0.0041 0.9006
vn -0.0058 0.9978 -0.0664
vn 0.0254 0.9983 -0.0523
vn 0.0523 0.9984 0.0232
vn -0.0086 0.9980 0.0625
vn 0.9525 0.0016 0.3044
vn -0.1051 0.0046 0.9944
vn 0.9776 0.0012 0.2106
vn 0.9612 -0.0010 -0.2760
vn 0.1058 -0.0046 -0.9944
vn 0.9740 -0.0008 -0.2267
vn 0.6595 -0.0033 -0.7517
vn 0.5769 -0.0036 -0.8168
vn 0.7140 0.0034 0.7001
vn 0.7409 0.0033 0.6716
vn 0.9985 -0.0000 -0.0545
vn -0.9985 0.0000 0.0545
vn -0.4938 0.0039 0.8696
vn -0.4710 0.0040 0.8821
vn 0.1215 0.0046 0.9926
vn -0.4980 -0.0041 -0.8672
vn -0.9329 -0.0019 -0.3601
vn -0.8984 -0.0022 -0.4392
vn 0.4870 0.0042 0.8734
vn -0.9730 0.0008 0.2309
vn -0.0000 -0.0046 -1.0000
vn -0.9772 -0.0012 -0.2122
vn -0.1156 -0.0046 -0.9933
vn 0.4295 -0.0041 -0.9031
vn 0.0049 0.0046 1.0000
vn -0.9999 -0.0044 -0.0158
vn -0.9999 0.0037 -0.0121
vn -0.9541 -0.0016 -0.2996
vn -0.9621 0.0010 0.2727
vn 0.0459 -0.9988 0.0187
vn 0.0571 -0.9982 0.0196
vn 0.0568 -0.9983 0.0155
vn 0.0029 0.9999 0.0149
vn -0.0750 0.9903 -0.1170
vn -0.2332 0.9722 0.0229
vn -0.0946 0.9955 -0.0085
vn -0.0872 0.9924 -0.0872
vn -0.0898 0.9833 -0.1584
vn -0.0515 0.9976 0.0466
vn 0.0359 0.9946 0.0978
vn 0.2321 0.9592 -0.1616
vn 0.1969 0.9779 -0.0701
vn 0.0068 0.9995 0.0299
vn -0.0536 0.9827 0.1773
vn 0.0348 0.9922 0.1195
vn 0.1180 0.9863 -0.1153
vn 0.1927 0.9786 -0.0720
vn 0.0759 0.9826 0.1694
vn 0.0474 -0.9988 0.0155
vn 0.1177 -0.9930 0.0082
vn -0.0007 -0.9968 -0.0801
vn -0.0759 -0.9826 -0.1694
vn -0.1927 -0.9786 0.0720
vn -0.1180 -0.9863 0.1153
vn -0.0348 -0.9922 -0.1195
vn 0.0536 -0.9827 -0.1773
vn -0.0068 -0.9995 -0.0299
vn -0.1969 -0.9779 0.0701
vn -0.2321 -0.9592 0.1616
vn -0.0359 -0.9946 -0.0978
vn 0.0515 -0.9976 -0.0466
vn 0.0898 -0.9833 0.1584
vn 0.0872 -0.9924 0.0872
vn 0.0946 -0.9955 0.0085
vn 0.2332 -0.9722 -0.0229
vn 0.0750 -0.9903 0.1170
vn -0.0029 -0.9999 -0.0149
vn 0.0086 -0.9980 -0.0625
vn 0.0007 0.9968 0.0801
vn -0.1177 0.9930 -0.0082
vn -0.0474 0.9988 -0.0155
vn -0.0480 0.9987 -0.0151
vn -0.0567 0.9982 -0.0190
vn -0.0571 0.9982 -0.0196
vn -0.0523 -0.9984 -0.0232
vn -0.0254 -0.9983 0.0523
vn 0.0058 -0.9978 0.0664
vn 0.0588 -0.9983 0.0061
usemtl Material.001
s 1
f 1//1 2//1 3//1 4//1
f 20//2 28//2 69//2 19//2
f 5//3 22//3 19//3 6//3
f 22//4 23//4 20//4 19//4
f 23//5 24//5 21//5 20//5
f 24//6 1//6 4//6 21//6
f 5//7 26//7 18//7 57//7
f 4//8 66//8 65//8 21//8
f 56//9 62//9 33//9 55//9
f 57//10 18//10 62//10 56//10
f 14//11 58//11 39//11 9//11
f 55//12 33//12 15//13 11//14
f 6//15 64//16 26//17 5//17
f 2//18 37//18 16//19 3//20
f 21//21 65//21 28//21 20//21
f 9//22 39//22 40//23 8//24
f 3//20 16//19 66//25 4//25
f 8//24 40//23 32//26 7//26
f 11//14 15//13 17//27 12//27
f 7//28 32//28 41//28 73//28
f 13//29 59//29 58//29 14//29
f 12//30 17//30 59//30 13//30
f 19//31 69//31 64//16 6//15
f 72//32 27//33 37//34 2//34
f 73//35 41//35 27//33 72//32
f 36//36 38//37 37//37 27//38
f 14//39 9//39 43//39 44//39
f 44//40 43//40 45//40 46//40
f 46//41 45//41 47//41 48//41
f 48//42 47//42 1//42 24//42
f 13//43 14//43 44//43 49//43
f 49//44 44//44 46//44 50//44
f 50//45 46//45 48//45 51//45
f 51//46 48//46 24//46 23//46
f 12//47 13//47 49//47 52//47
f 52//48 49//48 50//48 53//48
f 53//49 50//49 51//49 54//49
f 54//50 51//50 23//50 22//50
f 11//51 12//51 52//51 55//51
f 55//52 52//52 53//52 56//52
f 56//53 53//53 54//53 57//53
f 57//54 54//54 22//54 5//54
f 42//55 36//36 27//38 41//55
f 29//56 42//56 41//56 32//56
f 39//57 29//57 32//57 40//57
f 18//58 26//58 68//58 25//58
f 62//59 18//59 25//59 63//59
f 33//60 62//60 63//60 67//60
f 15//61 33//61 67//61 17//61
f 25//62 68//62 31//62 30//62
f 63//63 25//63 30//63 60//63
f 67//64 63//64 60//64 70//64
f 17//65 67//65 70//65 59//65
f 30//66 31//66 34//66 35//66
f 60//67 30//67 35//67 61//67
f 70//68 60//68 61//68 71//68
f 59//69 70//69 71//69 58//69
f 35//70 34//70 38//70 36//70
f 61//71 35//71 36//71 42//71
f 71//72 61//72 42//72 29//72
f 58//73 71//73 29//73 39//73
f 34//74 65//74 66//74 38//74
f 9//75 8//75 7//75 43//75
f 43//76 7//76 73//76 45//76
f 45//77 73//77 72//78 47//79
f 47//79 72//78 2//80 1//80
f 31//81 28//81 65//81 34//81
f 68//82 69//82 28//82 31//82
f 26//83 64//83 69//83 68//83
f 38//84 66//84 16//84 37//84
l 10 74
l 74 75
